<?xml version="1.0" encoding="UTF-8" standalone="no"?>
<!-- Generator: Adobe Illustrator 18.1.1, SVG Export Plug-In . SVG Version: 6.00 Build 0)  -->

<svg
   xmlns:dc="http://purl.org/dc/elements/1.1/"
   xmlns:cc="http://creativecommons.org/ns#"
   xmlns:rdf="http://www.w3.org/1999/02/22-rdf-syntax-ns#"
   xmlns:svg="http://www.w3.org/2000/svg"
   xmlns="http://www.w3.org/2000/svg"
   xmlns:sodipodi="http://sodipodi.sourceforge.net/DTD/sodipodi-0.dtd"
   xmlns:inkscape="http://www.inkscape.org/namespaces/inkscape"
   version="1.1"
   id="Layer_1"
   x="0px"
   y="0px"
   viewBox="0 0 595.3 841.9"
   enable-background="new 0 0 595.3 841.9"
   xml:space="preserve"
   inkscape:version="0.48.4 r9939"
   width="100%"
   height="100%"
   sodipodi:docname="somakeit_twitter.svg"><metadata
   id="metadata3013"><rdf:RDF><cc:Work
       rdf:about=""><dc:format>image/svg+xml</dc:format><dc:type
         rdf:resource="http://purl.org/dc/dcmitype/StillImage" /><dc:title></dc:title></cc:Work></rdf:RDF></metadata><defs
   id="defs3011">
	
		
	
</defs><sodipodi:namedview
   pagecolor="#ffffff"
   bordercolor="#666666"
   borderopacity="1"
   objecttolerance="10"
   gridtolerance="10"
   guidetolerance="10"
   inkscape:pageopacity="0"
   inkscape:pageshadow="2"
   inkscape:window-width="1600"
   inkscape:window-height="837"
   id="namedview3009"
   showgrid="false"
   inkscape:zoom="1.5441264"
   inkscape:cx="470.944"
   inkscape:cy="377.62121"
   inkscape:window-x="-8"
   inkscape:window-y="-8"
   inkscape:window-maximized="1"
   inkscape:current-layer="Layer_1" />
<g
   id="g3005"
   transform="translate(1.2952308,-0.6476154)">
		<path
   style="fill:#005056"
   d="M 156.09375 277.15625 L 156.09375 513.4375 C 156.09375 541.0375 178.49375 563.4375 206.09375 563.4375 L 298.9375 563.4375 L 391.78125 563.4375 C 419.38125 563.4375 441.78125 541.0375 441.78125 513.4375 L 441.78125 327.15625 C 441.78125 299.55625 419.38125 277.15625 391.78125 277.15625 L 390 277.15625 C 328.74884 277.42029 242.89953 277.15625 156.09375 277.15625 z M 345.375 365.03125 C 356.13405 364.83253 367.03824 368.35305 375.34375 376.3125 C 384.20297 375.2051 390.83799 371.89836 396.375 367.46875 C 396.375 377.43536 388.61316 384.07039 381.96875 388.5 C 388.61316 389.6074 396.36924 386.29096 401.90625 382.96875 C 401.90625 390.72056 389.72451 398.46299 384.1875 404 C 388.6171 493.69954 293.40283 549.06367 212.5625 505.875 C 234.71053 503.6602 255.72483 500.33767 267.90625 488.15625 C 250.18782 484.83404 235.80461 474.88257 231.375 461.59375 C 239.12681 462.70115 249.09375 460.46875 249.09375 460.46875 C 234.69752 451.60954 219.20115 443.86679 218.09375 421.71875 C 223.63076 423.93356 229.1505 425.04885 234.6875 426.15625 C 222.50609 416.18963 212.56463 392.93323 222.53125 373 C 243.57188 392.93323 265.69604 411.7676 305.5625 412.875 C 298.71046 383.94413 321.7051 365.46842 345.375 365.03125 z "
   transform="translate(-1.2952308,0.64759456)"
   id="path3007" />
	</g>
</svg>