<?xml version="1.0" encoding="UTF-8" standalone="no"?>
<!-- Generator: Adobe Illustrator 18.1.1, SVG Export Plug-In . SVG Version: 6.00 Build 0)  -->

<svg
   xmlns:dc="http://purl.org/dc/elements/1.1/"
   xmlns:cc="http://creativecommons.org/ns#"
   xmlns:rdf="http://www.w3.org/1999/02/22-rdf-syntax-ns#"
   xmlns:svg="http://www.w3.org/2000/svg"
   xmlns="http://www.w3.org/2000/svg"
   xmlns:sodipodi="http://sodipodi.sourceforge.net/DTD/sodipodi-0.dtd"
   xmlns:inkscape="http://www.inkscape.org/namespaces/inkscape"
   version="1.1"
   id="Layer_1"
   x="0px"
   y="0px"
   viewBox="0 0 595.3 841.9"
   enable-background="new 0 0 595.3 841.9"
   xml:space="preserve"
   inkscape:version="0.48.4 r9939"
   width="100%"
   height="100%"
   sodipodi:docname="somakeit_video.svg"><metadata
   id="metadata3013"><rdf:RDF><cc:Work
       rdf:about=""><dc:format>image/svg+xml</dc:format><dc:type
         rdf:resource="http://purl.org/dc/dcmitype/StillImage" /><dc:title></dc:title></cc:Work></rdf:RDF></metadata><defs
   id="defs3011">
	
		
	

		
	</defs><sodipodi:namedview
   pagecolor="#ffffff"
   bordercolor="#666666"
   borderopacity="1"
   objecttolerance="10"
   gridtolerance="10"
   guidetolerance="10"
   inkscape:pageopacity="0"
   inkscape:pageshadow="2"
   inkscape:window-width="1600"
   inkscape:window-height="837"
   id="namedview3009"
   showgrid="false"
   inkscape:zoom="1.5441264"
   inkscape:cx="470.944"
   inkscape:cy="377.62121"
   inkscape:window-x="-8"
   inkscape:window-y="-8"
   inkscape:window-maximized="1"
   inkscape:current-layer="Layer_1" />
<path
   style="fill:#005056"
   d="M 156.09375 277.15625 L 156.09375 513.4375 C 156.09375 541.0375 178.49375 563.4375 206.09375 563.4375 L 298.9375 563.4375 L 391.78125 563.4375 C 419.38125 563.4375 441.78125 541.0375 441.78125 513.4375 L 441.78125 327.15625 C 441.78125 299.55625 419.38125 277.15625 391.78125 277.15625 L 390 277.15625 C 328.74884 277.42029 242.89953 277.15625 156.09375 277.15625 z M 189.21875 293.90625 L 204.0625 293.90625 L 213.96875 331.125 L 223.84375 293.90625 L 238.6875 293.90625 L 221.03125 350.4375 L 221.03125 389.3125 L 206.90625 389.3125 L 206.90625 350.4375 C 206.90625 350.4375 192.28114 302.85782 189.21875 293.90625 z M 254.71875 317.46875 C 260.37236 317.46875 266.02899 319.36559 269.5625 324.3125 C 272.38932 327.84601 273.78125 333.71185 273.78125 341.25 L 273.78125 366.6875 C 273.78125 374.22565 272.37251 379.43524 269.78125 382.96875 C 266.24774 387.91566 260.37236 390.5 254.71875 390.5 C 249.06513 390.5 243.15851 387.91566 239.625 382.96875 C 237.03376 379.43524 235.625 374.22565 235.625 366.6875 L 235.625 341.25 C 235.625 333.71185 237.04819 327.84601 239.875 324.3125 C 243.4085 319.36559 248.35842 317.46875 254.71875 317.46875 z M 283.6875 317.9375 L 297.125 317.9375 L 297.125 370.9375 L 297.125 375.875 C 297.36057 377.75954 298.28853 378.46875 299.9375 378.46875 C 302.52874 378.46875 304.89193 376.34839 307.71875 372.34375 L 307.71875 317.9375 L 321.15625 317.9375 L 321.15625 389.3125 L 307.71875 389.3125 L 307.71875 381.53125 C 302.53626 387.42043 298.3051 390.25 293.59375 390.25 C 289.58909 390.25 286.50717 388.37726 285.09375 384.84375 C 284.15149 382.72365 283.6875 379.41567 283.6875 374.46875 L 283.6875 317.9375 z M 254.71875 329.46875 C 250.47853 329.46875 248.35579 332.77673 249.0625 339.84375 L 249.0625 368.125 C 248.35579 375.19203 250.47853 378.71875 254.71875 378.71875 C 258.95896 378.71875 261.08171 375.19203 260.375 368.125 L 260.375 339.84375 C 261.08171 332.77673 258.95896 329.46875 254.71875 329.46875 z M 296.5 400.6875 C 296.5 400.6875 340.80407 400.6924 370.25 402.8125 C 374.49022 403.28364 383.4282 403.53639 391.4375 411.78125 C 397.79782 418.14157 399.9375 432.5 399.9375 432.5 C 399.9375 432.5 402.03125 449.47664 402.03125 466.4375 L 402.03125 482.4375 C 402.03125 499.39835 399.9375 516.375 399.9375 516.375 C 399.9375 516.375 397.79782 530.73343 391.4375 537.09375 C 383.4282 545.57418 374.25465 545.56011 370.25 546.03125 C 340.80407 548.15135 296.5 548.15625 296.5 548.15625 C 296.5 548.15625 241.86711 547.68022 224.90625 546.03125 C 220.1949 545.08898 209.57179 545.33861 201.5625 537.09375 C 195.20218 530.73343 193.09375 516.375 193.09375 516.375 C 193.09375 516.375 190.96875 499.39835 190.96875 482.4375 L 190.96875 466.4375 C 190.96875 449.47664 193.09375 432.5 193.09375 432.5 C 193.09375 432.5 195.20218 418.14157 201.5625 411.78125 C 209.57179 403.30082 218.77661 403.28364 222.78125 402.8125 C 252.22719 400.6924 296.5 400.6875 296.5 400.6875 z M 208.65625 425.65625 L 208.65625 439.09375 L 223.5 439.09375 L 223.5 520.125 L 237.625 520.125 L 237.625 439.09375 L 253.15625 439.09375 L 253.15625 425.65625 L 208.65625 425.65625 z M 298.875 425.65625 L 298.875 520.125 L 311.59375 520.125 L 311.59375 513.0625 C 315.83396 518.24498 320.52422 521.0625 325 521.0625 C 330.18249 521.0625 333.97603 518.24498 335.625 513.0625 C 336.56727 510.00012 337.03125 505.53339 337.03125 498.9375 L 336.78125 498.9375 L 336.78125 470.90625 C 336.78125 464.07479 336.09852 459.57681 335.15625 456.75 C 333.50727 451.33195 330.18249 448.53125 325 448.53125 C 320.28865 448.53125 315.83396 451.34877 311.59375 456.53125 L 311.59375 425.65625 L 298.875 425.65625 z M 364.59375 448.0625 C 357.99786 448.0625 353.05033 450.6324 349.28125 455.34375 C 346.69001 458.87727 345.03125 464.77434 345.03125 472.3125 L 345.03125 497.03125 C 345.03125 504.56941 346.67319 509.77898 349.5 513.3125 C 353.26908 518.25941 358.46661 520.59375 365.0625 520.59375 C 371.89395 520.59375 377.06024 518.24498 380.59375 513.0625 C 382.24272 510.94239 383.18511 508.35806 383.65625 505.53125 C 383.89182 504.35341 384.15625 501.28589 384.15625 497.28125 L 384.15625 495.40625 L 370.71875 495.40625 C 370.71875 500.58873 370.95431 503.63705 370.71875 504.34375 C 370.01204 507.87726 368.12487 509.53125 365.0625 509.53125 C 360.82228 509.53125 358.93988 506.24009 358.46875 498.9375 L 358.46875 486.21875 L 383.90625 486.21875 L 383.90625 471.84375 C 383.90625 464.54116 382.24749 458.87727 379.65625 455.34375 C 376.12274 450.6324 370.95407 448.0625 364.59375 448.0625 z M 251.0625 449.6875 L 251.0625 505.28125 C 251.0625 510.22817 251.52648 513.53614 252.46875 515.65625 C 253.88215 519.18976 256.93285 521.0625 260.9375 521.0625 C 265.64885 521.0625 269.88001 518.23293 275.0625 512.34375 L 275.0625 520.125 L 288.5 520.125 L 288.5 449.6875 L 275.0625 449.6875 L 275.0625 503.40625 C 272.23569 507.4109 269.90374 509.53125 267.3125 509.53125 C 265.66353 509.53125 264.70432 508.82204 264.46875 506.9375 L 264.46875 502 L 264.46875 449.6875 L 251.0625 449.6875 z M 318.40625 460.3125 C 321.93977 460.3125 323.60818 462.18059 323.84375 469.71875 L 323.84375 500.09375 C 323.84375 507.16077 322.17533 509.78125 318.40625 509.78125 C 316.28615 509.78125 313.93261 508.58886 311.8125 506.46875 L 311.8125 463.59375 C 313.93261 461.47364 316.28615 460.3125 318.40625 460.3125 z M 364.28125 460.3125 C 364.52798 460.29709 364.79749 460.3125 365.0625 460.3125 C 369.30271 460.3125 370.9375 462.18536 370.9375 468.78125 L 370.9375 476.5625 L 358.9375 476.5625 L 358.9375 468.78125 C 358.9375 462.5976 360.58037 460.5437 364.28125 460.3125 z "
   transform="translate(0,-2.0838898e-5)"
   id="path3007" />
</svg>