<?xml version="1.0" encoding="UTF-8" standalone="no"?>
<!-- Generator: Adobe Illustrator 18.1.1, SVG Export Plug-In . SVG Version: 6.00 Build 0)  -->

<svg
   xmlns:dc="http://purl.org/dc/elements/1.1/"
   xmlns:cc="http://creativecommons.org/ns#"
   xmlns:rdf="http://www.w3.org/1999/02/22-rdf-syntax-ns#"
   xmlns:svg="http://www.w3.org/2000/svg"
   xmlns="http://www.w3.org/2000/svg"
   xmlns:sodipodi="http://sodipodi.sourceforge.net/DTD/sodipodi-0.dtd"
   xmlns:inkscape="http://www.inkscape.org/namespaces/inkscape"
   version="1.1"
   id="Layer_1"
   x="0px"
   y="0px"
   viewBox="0 0 595.3 841.9"
   enable-background="new 0 0 595.3 841.9"
   xml:space="preserve"
   inkscape:version="0.48.4 r9939"
   width="100%"
   height="100%"
   sodipodi:docname="somakeit_email.svg"><metadata
   id="metadata3013"><rdf:RDF><cc:Work
       rdf:about=""><dc:format>image/svg+xml</dc:format><dc:type
         rdf:resource="http://purl.org/dc/dcmitype/StillImage" /><dc:title></dc:title></cc:Work></rdf:RDF></metadata><defs
   id="defs3011">
	
		
	

		
	</defs><sodipodi:namedview
   pagecolor="#ffffff"
   bordercolor="#666666"
   borderopacity="1"
   objecttolerance="10"
   gridtolerance="10"
   guidetolerance="10"
   inkscape:pageopacity="0"
   inkscape:pageshadow="2"
   inkscape:window-width="1600"
   inkscape:window-height="837"
   id="namedview3009"
   showgrid="false"
   inkscape:zoom="1.5441264"
   inkscape:cx="470.944"
   inkscape:cy="377.62121"
   inkscape:window-x="-8"
   inkscape:window-y="-8"
   inkscape:window-maximized="1"
   inkscape:current-layer="Layer_1" />
<path
   style="fill:#005056"
   d="M 156.09375 277.15625 L 156.09375 513.4375 C 156.09375 541.0375 178.49375 563.4375 206.09375 563.4375 L 298.9375 563.4375 L 391.78125 563.4375 C 419.38125 563.4375 441.78125 541.0375 441.78125 513.4375 L 441.78125 327.15625 C 441.78125 299.55625 419.38125 277.15625 391.78125 277.15625 L 390 277.15625 C 328.74884 277.42029 242.89953 277.15625 156.09375 277.15625 z M 261.75 338.125 C 262.8125 338.02841 264.16477 338.82102 264.9375 339.59375 L 360.75 431.28125 C 361.78031 432.31156 361.78125 433.3447 361.78125 434.375 C 361.78125 436.43561 361.77936 437.46875 359.71875 437.46875 L 328.8125 451.875 L 348.375 495.15625 C 349.4053 497.21686 348.37311 499.28219 346.3125 500.3125 L 319.53125 512.6875 L 317.46875 512.6875 L 316.4375 512.6875 C 315.4072 512.6875 314.375 511.65531 314.375 510.625 L 293.78125 467.34375 L 264.9375 481.78125 L 262.875 481.78125 C 261.84469 481.78125 261.8428 481.7803 260.8125 480.75 C 259.78219 479.71969 258.75 478.68656 258.75 477.65625 L 258.75 342.6875 C 258.75 341.6572 259.78219 339.59281 260.8125 338.5625 C 261.07007 338.30493 261.39583 338.1572 261.75 338.125 z "
   transform="translate(0,-2.0838898e-5)"
   id="path3007" />
</svg>