<?xml version="1.0" encoding="UTF-8" standalone="no"?>
<!-- Generator: Adobe Illustrator 18.1.1, SVG Export Plug-In . SVG Version: 6.00 Build 0)  -->

<svg
   xmlns:dc="http://purl.org/dc/elements/1.1/"
   xmlns:cc="http://creativecommons.org/ns#"
   xmlns:rdf="http://www.w3.org/1999/02/22-rdf-syntax-ns#"
   xmlns:svg="http://www.w3.org/2000/svg"
   xmlns="http://www.w3.org/2000/svg"
   xmlns:sodipodi="http://sodipodi.sourceforge.net/DTD/sodipodi-0.dtd"
   xmlns:inkscape="http://www.inkscape.org/namespaces/inkscape"
   version="1.1"
   id="Layer_1"
   x="0px"
   y="0px"
   viewBox="0 0 595.3 841.9"
   enable-background="new 0 0 595.3 841.9"
   xml:space="preserve"
   inkscape:version="0.48.4 r9939"
   width="100%"
   height="100%"
   sodipodi:docname="somakeit_twitter.svg"><metadata
   id="metadata3013"><rdf:RDF><cc:Work
       rdf:about=""><dc:format>image/svg+xml</dc:format><dc:type
         rdf:resource="http://purl.org/dc/dcmitype/StillImage" /><dc:title></dc:title></cc:Work></rdf:RDF></metadata><defs
   id="defs3011">
	
		
	

		
	</defs><sodipodi:namedview
   pagecolor="#ffffff"
   bordercolor="#666666"
   borderopacity="1"
   objecttolerance="10"
   gridtolerance="10"
   guidetolerance="10"
   inkscape:pageopacity="0"
   inkscape:pageshadow="2"
   inkscape:window-width="1600"
   inkscape:window-height="837"
   id="namedview3009"
   showgrid="false"
   inkscape:zoom="1.5441264"
   inkscape:cx="470.944"
   inkscape:cy="377.62121"
   inkscape:window-x="-8"
   inkscape:window-y="-8"
   inkscape:window-maximized="1"
   inkscape:current-layer="Layer_1" />
<path
   style="fill:#005056"
   d="M 156.09375 277.15625 L 156.09375 513.4375 C 156.09375 541.0375 178.49375 563.4375 206.09375 563.4375 L 298.9375 563.4375 L 391.78125 563.4375 C 419.38125 563.4375 441.78125 541.0375 441.78125 513.4375 L 441.78125 327.15625 C 441.78125 299.55625 419.38125 277.15625 391.78125 277.15625 L 390 277.15625 C 328.74884 277.42029 242.89953 277.15625 156.09375 277.15625 z M 299.09375 309.53125 C 317.51548 309.53142 334.0792 313.30432 348.75 320.84375 C 363.42046 328.3835 374.96918 339.63201 383.4375 354.5625 C 390.64261 367.41335 394.24978 381.3584 394.25 396.4375 C 394.24978 417.97926 386.68452 437.13039 371.53125 453.84375 C 358.0118 468.84867 343.23219 476.34375 327.1875 476.34375 C 322.06192 476.34375 317.90683 475.55992 314.75 474 C 311.59289 472.44009 309.26675 470.20949 307.78125 467.3125 C 306.81545 465.45546 306.13306 462.2812 305.6875 457.75 C 300.85906 463.32114 295.44832 467.77643 289.46875 471.15625 C 283.48897 474.53607 277.48547 476.21875 271.46875 476.21875 C 264.85759 476.21875 258.42708 474.30015 252.1875 470.4375 C 245.94776 466.57486 240.86848 460.61619 236.96875 452.59375 C 233.0689 444.57135 231.12495 435.76988 231.125 426.1875 C 231.12495 414.37676 234.16473 402.56677 240.21875 390.71875 C 246.27264 378.87091 253.79308 369.97389 262.78125 364.03125 C 271.76924 358.08882 280.50053 355.12512 288.96875 355.125 C 295.43115 355.12512 301.60036 356.80779 307.46875 360.1875 C 313.33687 363.56743 318.3908 368.7169 322.625 375.625 L 326.40625 358.34375 L 346.34375 358.34375 L 330.3125 433.125 C 328.08389 443.52448 326.9686 449.2608 326.96875 450.375 C 326.9686 452.38063 327.72707 454.11403 329.25 455.5625 C 330.77262 457.01101 332.59567 457.75002 334.75 457.75 C 338.68677 457.75002 343.86161 455.46871 350.25 450.9375 C 358.71794 444.99499 365.40382 437.02218 370.34375 427.03125 C 375.28328 417.04041 377.7498 406.74736 377.75 396.125 C 377.7498 383.72004 374.60089 372.11471 368.25 361.34375 C 361.89872 350.57302 352.40308 341.96265 339.8125 335.5 C 327.22159 329.03764 313.32137 325.81265 298.09375 325.8125 C 280.71171 325.81265 264.84218 329.8663 250.46875 338 C 236.09517 346.13398 224.94221 357.8095 217.03125 373 C 209.12021 388.1907 205.15622 404.46189 205.15625 421.84375 C 205.15622 440.04281 209.12021 455.72715 217.03125 468.875 C 224.94221 482.02286 236.37592 491.72317 251.34375 498 C 266.31143 504.27678 282.89461 507.43747 301.09375 507.4375 C 320.55542 507.43747 336.88322 504.16176 350.03125 497.625 C 363.17893 491.08819 373.02551 483.14074 379.5625 473.78125 L 399.71875 473.78125 C 395.93016 481.58082 389.42947 489.52827 380.21875 497.625 C 371.00762 505.72168 360.04574 512.12682 347.34375 516.84375 C 334.64141 521.5606 319.33925 523.9062 301.4375 523.90625 C 284.94684 523.9062 269.74024 521.79651 255.8125 517.5625 C 241.88461 513.3284 230.02388 506.97398 220.21875 498.46875 C 210.41352 489.96347 203.0081 480.16172 198.03125 469.09375 C 191.79157 455.05452 188.68749 439.89274 188.6875 423.625 C 188.68749 405.50032 192.38431 388.22885 199.8125 371.8125 C 208.87484 351.68227 221.76121 336.29046 238.4375 325.59375 C 255.11368 314.89734 275.32349 309.53142 299.09375 309.53125 z M 290.40625 371.71875 C 285.65211 371.71885 281.16557 372.9297 276.96875 375.34375 C 272.77174 377.75801 268.71809 381.62055 264.78125 386.96875 C 260.84424 392.31711 257.68944 398.81781 255.3125 406.46875 C 252.93541 414.11984 251.74992 421.14307 251.75 427.53125 C 251.74992 437.70789 254.17161 445.63587 259 451.28125 C 263.82822 456.92668 269.35399 459.75001 275.59375 459.75 C 279.75342 459.75001 284.14442 458.48846 288.75 456 C 293.35535 453.51158 297.74046 449.80887 301.9375 444.90625 C 306.13429 440.00369 309.57572 433.78964 312.25 426.25 C 314.92401 418.71046 316.24986 411.17055 316.25 403.59375 C 316.24986 393.49151 313.76388 385.63372 308.75 380.0625 C 303.73585 374.49147 297.61146 371.71885 290.40625 371.71875 z "
   transform="translate(0,-2.0838898e-5)"
   id="path3007" />
</svg>