<?xml version="1.0" encoding="UTF-8" standalone="no"?>
<!-- Generator: Adobe Illustrator 18.1.1, SVG Export Plug-In . SVG Version: 6.00 Build 0)  -->

<svg
   xmlns:dc="http://purl.org/dc/elements/1.1/"
   xmlns:cc="http://creativecommons.org/ns#"
   xmlns:rdf="http://www.w3.org/1999/02/22-rdf-syntax-ns#"
   xmlns:svg="http://www.w3.org/2000/svg"
   xmlns="http://www.w3.org/2000/svg"
   xmlns:sodipodi="http://sodipodi.sourceforge.net/DTD/sodipodi-0.dtd"
   xmlns:inkscape="http://www.inkscape.org/namespaces/inkscape"
   version="1.1"
   id="Layer_1"
   x="0px"
   y="0px"
   viewBox="0 0 595.3 841.9"
   enable-background="new 0 0 595.3 841.9"
   xml:space="preserve"
   inkscape:version="0.48.4 r9939"
   width="100%"
   height="100%"
   sodipodi:docname="somakeit_facebook.svg"><metadata
   id="metadata3013"><rdf:RDF><cc:Work
       rdf:about=""><dc:format>image/svg+xml</dc:format><dc:type
         rdf:resource="http://purl.org/dc/dcmitype/StillImage" /><dc:title></dc:title></cc:Work></rdf:RDF></metadata><defs
   id="defs3011">
	
		
	

		
	</defs><sodipodi:namedview
   pagecolor="#ffffff"
   bordercolor="#666666"
   borderopacity="1"
   objecttolerance="10"
   gridtolerance="10"
   guidetolerance="10"
   inkscape:pageopacity="0"
   inkscape:pageshadow="2"
   inkscape:window-width="1600"
   inkscape:window-height="837"
   id="namedview3009"
   showgrid="false"
   inkscape:zoom="1.5441264"
   inkscape:cx="470.944"
   inkscape:cy="377.62121"
   inkscape:window-x="-8"
   inkscape:window-y="-8"
   inkscape:window-maximized="1"
   inkscape:current-layer="Layer_1" />
<path
   style="fill:#005056"
   d="M 156.09375 277.15625 L 156.09375 513.4375 C 156.09375 541.0375 178.49375 563.4375 206.09375 563.4375 L 263 563.4375 L 263 438.125 L 237.03125 438.125 L 237.03125 394.34375 L 263 394.34375 L 263 366.78125 C 263 331.11014 277.59321 310.03125 319.75 310.03125 L 355.40625 310.03125 L 355.40625 353.8125 L 332.71875 353.8125 C 316.50462 353.8125 314.875 360.27512 314.875 371.625 L 314.875 394.34375 L 355.40625 394.34375 L 352.15625 438.125 L 316.5 438.125 L 316.5 563.4375 L 391.78125 563.4375 C 419.38125 563.4375 441.78125 541.0375 441.78125 513.4375 L 441.78125 327.15625 C 441.78125 299.55625 419.38125 277.15625 391.78125 277.15625 L 390 277.15625 C 328.74884 277.42029 242.89953 277.15625 156.09375 277.15625 z "
   transform="translate(0,-2.0838898e-5)"
   id="path3007" />
</svg>