<?xml version="1.0" encoding="utf-8"?>
<!-- Generator: Adobe Illustrator 18.1.1, SVG Export Plug-In . SVG Version: 6.00 Build 0)  -->
<svg version="1.1" id="Layer_1" xmlns="http://www.w3.org/2000/svg" xmlns:xlink="http://www.w3.org/1999/xlink" x="0px" y="0px"
	 viewBox="0 0 595.3 841.9" enable-background="new 0 0 595.3 841.9" xml:space="preserve">
<path id="u_6_" fill="#FFFFFF" d="M278.8,440.9h-5.7v-3.3c-2.2,2.5-4,3.7-6,3.7c-1.7,0-3-0.8-3.6-2.3c-0.4-0.9-0.6-2.3-0.6-4.4v-24
	h5.7v22.5c0,1.3,0,1.8,0,2.1c0.1,0.8,0.5,1.1,1.2,1.1c1.1,0,2.1-0.9,3.3-2.6v-23.1h5.7V440.9z"/>
<path id="o_3_" fill="#FFFFFF" d="M258.7,420.5c0-3.2-0.6-5.7-1.8-7.2c-1.5-2.1-3.9-2.9-6.3-2.9c-2.7,0-4.8,0.8-6.3,2.9
	c-1.2,1.5-1.8,4-1.8,7.2l0,10.8c0,3.2,0.6,5.4,1.7,6.9c1.5,2.1,4,3.2,6.4,3.2c2.4,0,4.9-1.1,6.4-3.2c1.1-1.5,1.7-3.7,1.7-6.9V420.5z
	 M253,431.9c0.3,3-0.6,4.5-2.4,4.5c-1.8,0-2.7-1.5-2.4-4.5v-12c-0.3-3,0.6-4.4,2.4-4.4s2.7,1.4,2.4,4.4L253,431.9z"/>
<path id="y_3_" fill="#FFFFFF" d="M236.3,424.4v16.5h-6v-16.5c0,0-6.2-20.2-7.5-24h6.3l4.2,15.8l4.2-15.8h6.3L236.3,424.4z"/>
<g>
	<path fill="#FFFFFF" d="M337.3,415.5c-0.9,0-1.9,0.5-2.8,1.4l0,18.2c0.9,0.9,1.9,1.4,2.8,1.4c1.6,0,2.3-1.1,2.3-4.1v-12.9
		C339.5,416.3,338.8,415.5,337.3,415.5z"/>
	<path fill="#FFFFFF" d="M359.6,419.1c0-2.8-0.7-3.6-2.5-3.6c-1.8,0-2.6,0.8-2.6,3.6v3.3l5.1,0V419.1z"/>
	<path fill="#FFFFFF" d="M371.9,403.7c0,0-0.9-6.1-3.6-8.8c-3.4-3.5-7.2-3.6-9-3.8c-12.5-0.9-31.3-0.9-31.3-0.9h0
		c0,0-18.8,0-31.3,0.9c-1.7,0.2-5.6,0.2-9,3.8c-2.7,2.7-3.6,8.8-3.6,8.8s-0.9,7.2-0.9,14.4v6.8c0,7.2,0.9,14.4,0.9,14.4
		s0.9,6.1,3.6,8.8c3.4,3.5,7.9,3.4,9.9,3.8c7.2,0.7,30.4,0.9,30.4,0.9s18.8,0,31.3-0.9c1.7-0.2,5.6-0.2,9-3.8
		c2.7-2.7,3.6-8.8,3.6-8.8s0.9-7.2,0.9-14.4v-6.8C372.8,410.9,371.9,403.7,371.9,403.7z M303,440.9h-6v-34.4h-6.3v-5.7l18.9,0v5.7
		H303V440.9z M324.6,440.9h-5.7v-3.3c-2.2,2.5-4,3.7-6,3.7c-1.7,0-3-0.8-3.6-2.3c-0.4-0.9-0.6-2.3-0.6-4.4V411h5.7v22.2
		c0,1.3,0,1.8,0,2.1c0.1,0.8,0.5,1.1,1.2,1.1c1.1,0,2.1-0.9,3.3-2.6V411h5.7V440.9z M345.2,431.9c0,2.8-0.2,4.7-0.6,6
		c-0.7,2.2-2.3,3.4-4.5,3.4c-1.9,0-3.9-1.2-5.7-3.4l0,3h-5.4v-40.1h5.4l0,13.1c1.8-2.2,3.7-3.4,5.7-3.4c2.2,0,3.6,1.2,4.3,3.5
		c0.4,1.2,0.7,3.1,0.7,6V431.9z M357.1,436.4c1.3,0,2.1-0.7,2.4-2.2c0.1-0.3,0-1.6,0-3.8h5.7v0.8c0,1.7-0.1,3-0.2,3.5
		c-0.2,1.2-0.6,2.3-1.3,3.2c-1.5,2.2-3.7,3.2-6.6,3.2c-2.8,0-5-1-6.6-3.1c-1.2-1.5-1.9-3.7-1.9-6.9v-10.5c0-3.2,0.7-5.7,1.8-7.2
		c1.6-2,3.7-3.1,6.5-3.1c2.7,0,4.9,1.1,6.4,3.1c1.1,1.5,1.8,3.9,1.8,7l0,6.1h-10.8v5.4C354.5,435,355.3,436.4,357.1,436.4z"/>
</g>
</svg>
